<?xml version="1.0" encoding="utf-8"?>
<!-- Generator: Adobe Illustrator 19.0.0, SVG Export Plug-In . SVG Version: 6.00 Build 0)  -->
<svg version="1.1" baseProfile="basic" id="Layer_1"
	 xmlns="http://www.w3.org/2000/svg" xmlns:xlink="http://www.w3.org/1999/xlink" x="0px" y="0px" viewBox="0 0 960 560"
	 xml:space="preserve">
<style type="text/css">
	.st0{fill:#FFFFFF;stroke:#00529C;stroke-width:18;stroke-miterlimit:10;}
	.st1{fill:#00529C;}
	.st2{fill:#FFFFFF;stroke:#00529C;stroke-width:8;stroke-miterlimit:10;}
</style>
<circle id="XMLID_132_" class="st0" cx="480" cy="279.5" r="139"/>
<circle id="XMLID_131_" class="st1" cx="534.7" cy="221.7" r="28"/>
<circle id="XMLID_130_" class="st1" cx="401.7" cy="251.7" r="28"/>
<g id="XMLID_115_">
	<path id="XMLID_116_" class="st2" d="M530.7,294c0,0,20.3-20.8,58.3-13.5"/>
	<path id="XMLID_117_" class="st2" d="M538.3,305.4c0,0,34.7-13.4,57.7,1"/>
	<path id="XMLID_118_" class="st2" d="M540.3,318c0,0,27.7-2.7,44,14"/>
	<line id="XMLID_119_" class="st0" x1="451" y1="295" x2="511" y2="280.5"/>
	<line id="XMLID_120_" class="st0" x1="491" y1="327" x2="481" y2="287.7"/>
</g>
<path id="XMLID_125_" class="st2" d="M440.9,315.6c0,0-27.6-9.1-58,14.9"/>
<path id="XMLID_124_" class="st2" d="M439.3,329.2c0,0-36.9,4.1-50.7,27.5"/>
<path id="XMLID_123_" class="st2" d="M443.3,341.3c0,0-25.9,10.3-32.6,32.7"/>
<line id="XMLID_122_" class="st0" x1="512" y1="279.8" x2="452.1" y2="294.5"/>
</svg>
