<?xml version="1.0" encoding="utf-8"?>
<!-- Generator: Adobe Illustrator 19.0.0, SVG Export Plug-In . SVG Version: 6.00 Build 0)  -->
<svg version="1.1" baseProfile="tiny" id="Layer_1" xmlns="http://www.w3.org/2000/svg" xmlns:xlink="http://www.w3.org/1999/xlink"
	 x="0px" y="0px" viewBox="0 0 960 560" xml:space="preserve">
<g id="XMLID_1556_">
	<g id="XMLID_1558_">
		
			<circle id="XMLID_1561_" fill="#FFFFFF" stroke="#01539B" stroke-width="17.8607" stroke-miterlimit="10" cx="480.6" cy="279.6" r="137.9"/>
		<rect id="XMLID_1575_" x="440.9" y="317" fill="#01539B" width="88" height="56.8"/>
		<path id="XMLID_1574_" fill="none" stroke="#01539B" stroke-width="7.9381" stroke-miterlimit="10" d="M401.3,169.4
			c15.1,12.8,95.3,79.9,208.8,60.1"/>
		<path id="XMLID_1573_" fill="#01539B" d="M467.5,211.4c1-0.6,79.9-47,114.6,21.2"/>
		<circle id="XMLID_1572_" fill="#01539B" cx="402.8" cy="252" r="27.8"/>
		<path id="XMLID_1571_" fill="none" stroke="#01539B" stroke-width="7.9381" stroke-miterlimit="10" d="M521.9,292.1
			c0,0,27.5-17.7,63.2-5.2"/>
		<path id="XMLID_1570_" fill="none" stroke="#01539B" stroke-width="7.9381" stroke-miterlimit="10" d="M531.5,300.4
			c0,0,30.6-7.6,61.2,6"/>
		<path id="XMLID_1569_" fill="none" stroke="#01539B" stroke-width="7.9381" stroke-miterlimit="10" d="M532.5,311.9
			c2.5-0.1,33.9-3.3,52.6,15.9"/>
		<path id="XMLID_1568_" fill="none" stroke="#01539B" stroke-width="7.9381" stroke-miterlimit="10" d="M430.6,298.2
			c0,0-32.9-7.5-56.9,3.1"/>
		<path id="XMLID_1567_" fill="none" stroke="#01539B" stroke-width="7.9381" stroke-miterlimit="10" d="M421.7,308.8
			c0,0-33.1-1.5-53.9,20"/>
		<path id="XMLID_1566_" fill="none" stroke="#01539B" stroke-width="7.9381" stroke-miterlimit="10" d="M428.3,317.7
			c0,0-30.6,4.3-45.3,28.9"/>
		<circle id="XMLID_1565_" fill="#FFFFFF" cx="510.5" cy="302.7" r="28.9"/>
		<circle id="XMLID_1564_" fill="#FFFFFF" cx="448" cy="303.7" r="28.9"/>
		
			<line id="XMLID_1563_" fill="#FFFFFF" stroke="#01539B" stroke-width="17.8607" stroke-miterlimit="10" x1="437.5" y1="286.4" x2="501.4" y2="283.7"/>
		
			<line id="XMLID_1562_" fill="#FFFFFF" stroke="#01539B" stroke-width="17.8607" stroke-miterlimit="10" x1="480.6" y1="323.8" x2="467.4" y2="285.6"/>
		
			<line id="XMLID_1560_" fill="none" stroke="#01539B" stroke-width="17.8607" stroke-miterlimit="10" x1="378.6" y1="221.4" x2="443.3" y2="247.9"/>
		<path id="XMLID_1559_" fill="#01539B" d="M467.5,209.4c-6.7,26.8,63.4,104,114.6,22.2"/>
		<polygon id="XMLID_185_" fill="#FFFFFF" points="450.7,384 464.4,339.3 478.2,388.6 		"/>
	</g>
</g>
</svg>
